# xmcd
#
# Track frame offsets: 
#        150
#        34250
#        92800
#        131900
#        182925
#        214300
#
# Disc length: 3539 seconds
#
# Revision: 3
# Processed by: cddbd v1.5PL3 Copyright (c) Steve Scherf et al.
# Submitted via: ExactAudioCopy v0.95a4
#
DISCID=5b0dd106
DTITLE=Stan GetzSextet - Utopia
DYEAR=1978
DGENRE=Jazz
TTITLE0=Utopia
TTITLE1=Lester Left Town
TTITLE2=Jet Lag
TTITLE3=Raven's Wood
TTITLE4=Infant Eyes
TTITLE5=Willow Weep For Me
EXTD=Recorded in Warsaw, Poland, April 1978.\nStan Getz - Tenor Sax\nB
EXTD=ob Brookmeyer - Trombone\nAndy LaVerne - Piano and keyboards\nMike 
EXTD=Richmond - Bass\nJeff Brillinger - Drums\nEfraim Toro - Percussio
EXTD=n
EXTT0=
EXTT1=
EXTT2=
EXTT3=
EXTT4=
EXTT5=
PLAYORDER=
